<svg width="1241" height="768" viewBox="0 0 1241 768" fill="none" xmlns="http://www.w3.org/2000/svg">
<path d="M1375 -45C1375 93.0712 1263.07 205 1125 205C986.929 205 875 93.0712 875 -45C875 -183.071 986.929 -295 1125 -295C1263.07 -295 1375 -183.071 1375 -45Z" fill="#C4C4C4" fill-opacity="0.05"/>
<path d="M1375 76.5C1375 281.674 1208.67 448 1003.5 448C798.326 448 632 281.674 632 76.5C632 -128.674 798.326 -295 1003.5 -295C1208.67 -295 1375 -128.674 1375 76.5Z" fill="#C4C4C4" fill-opacity="0.05"/>
<path d="M1375 215.5C1375 497.441 1146.44 726 864.5 726C582.559 726 354 497.441 354 215.5C354 -66.4414 582.559 -295 864.5 -295C1146.44 -295 1375 -66.4414 1375 215.5Z" fill="#C4C4C4" fill-opacity="0.05"/>
<path d="M1375 392.5C1375 772.196 1067.2 1080 687.5 1080C307.804 1080 0 772.196 0 392.5C0 12.8042 307.804 -295 687.5 -295C1067.2 -295 1375 12.8042 1375 392.5Z" fill="#C4C4C4" fill-opacity="0.05"/>
</svg>
